<?xml version="1.0" ?><svg viewBox="0 0 480 480" xmlns="http://www.w3.org/2000/svg"><g data-name="13-sheild" id="_13-sheild"><path fill="#ffffff" d="M440,32a8,8,0,0,0-10.054-7.732C429.354,24.425,370.311,40,336,40c-18.13,0-45.986-12.452-66.327-21.543C253.053,11.027,245.435,7.73,240,7.974c-5.413-.24-13.054,3.053-29.673,10.483C189.987,27.548,162.13,40,144,40c-34.311,0-93.354-15.575-93.946-15.732A8,8,0,0,0,40,32V241.47c0,34.84,33.132,84.13,98.476,146.5A1220.316,1220.316,0,0,0,235.2,470.4a8,8,0,0,0,9.6,0c.431-.323,40.235-30.27,83.23-69.8A8,8,0,0,0,344,400a40.045,40.045,0,0,1,40-40,8,8,0,0,0,.153-15.992C421.213,302.048,440,267.588,440,241.47ZM336,371.18A56.454,56.454,0,0,0,316.82,352,56.454,56.454,0,0,0,336,332.82,56.454,56.454,0,0,0,355.18,352,56.454,56.454,0,0,0,336,371.18Zm56-275.2a40.3,40.3,0,0,1-10.8-12.295q5.233-.843,10.8-1.857ZM387.18,112A56.454,56.454,0,0,0,368,131.18,56.454,56.454,0,0,0,348.82,112,56.454,56.454,0,0,0,368,92.82,56.454,56.454,0,0,0,387.18,112ZM320,104a8,8,0,0,0,0,16,40.045,40.045,0,0,1,40,40,8,8,0,0,0,16,0,39.962,39.962,0,0,1,16-31.978V241.47c0,2.321-1.072,15.36-22.251,44.239-6.718,9.161-14.831,19.033-24.159,29.429A39.854,39.854,0,0,1,344,304a8,8,0,0,0-16,0,40.045,40.045,0,0,1-40,40,8,8,0,0,0,0,16,39.864,39.864,0,0,1,11.437,1.675C277.361,382.2,255.93,400.216,240,413.107c-18.327-14.853-43.728-36.293-68.786-60.241-26.077-24.921-46.635-47.578-61.1-67.341C89.066,256.766,88,243.781,88,241.47V81.826C110.5,85.925,129.3,88,144,88c28.357,0,60.247-14.251,85.931-25.729,3.287-1.472,6.908-3.089,10.069-4.451,2.912,1.256,6.185,2.715,9.167,4.044l.918.409C275.723,73.735,307.63,88,336,88c4.988,0,10.52-.253,16.509-.737A39.969,39.969,0,0,1,320,104Zm104,8V241.47c0,23.072-19.909,57.039-57.64,98.419a40.223,40.223,0,0,1-12.681-9.845,422.462,422.462,0,0,0,28.972-34.873C404.707,265.1,408,248.616,408,241.47V120.805a40.028,40.028,0,0,1,8-.805,8,8,0,0,0,0-16,40.028,40.028,0,0,1-8-.805V72.16a8,8,0,0,0-9.555-7.847c-7.851,1.555-15.289,2.878-22.215,3.957A40.425,40.425,0,0,1,376,64a8,8,0,0,0-16,0,39.988,39.988,0,0,1-.541,6.524A217.948,217.948,0,0,1,336,72c-24.956,0-55.136-13.492-79.395-24.337l-.923-.412c-4.181-1.864-8.918-3.976-12.616-5.51a8,8,0,0,0-6.133,0c-3.882,1.612-9.026,3.905-13.59,5.949C199.107,58.521,168.945,72,144,72c-15.689,0-36.7-2.586-62.445-7.687A8,8,0,0,0,72,72.16V241.47c0,7.122,3.274,23.543,25.205,53.506,15.021,20.519,36.2,43.888,62.958,69.458C188,391.042,216.225,414.569,235,429.621a8,8,0,0,0,10,0c17.336-13.879,42.989-35.211,69.18-59.829a40.22,40.22,0,0,1,9.8,12.735c-36.17,33.882-71.438,61.713-83.976,71.4-13.284-10.259-52.072-40.875-90.476-77.532C88.34,318,56,271.34,56,241.47V42.264C74.9,46.848,116.118,56,144,56c21.543,0,51.2-13.257,72.856-22.937,8.66-3.87,19.4-8.669,22.511-9.088a8.107,8.107,0,0,0,1.266,0c3.115.419,13.851,5.218,22.511,9.088C284.8,42.743,314.457,56,336,56c27.883,0,69.1-9.152,88-13.736Z"/></g></svg>